<svg width="31" height="31" viewBox="0 0 31 31" fill="none" xmlns="http://www.w3.org/2000/svg">
<rect width="30.8889" height="30.198" rx="15.099" fill="#F4C23A"/>
<g clip-path="url(#clip0_134_2)">
<path d="M19.643 4.83179H11.7972C8.93728 4.83179 6.6189 7.35771 6.6189 10.4736V19.7246C6.6189 22.8405 8.93728 25.3664 11.7972 25.3664H19.643C22.5029 25.3664 24.8213 22.8405 24.8213 19.7246V10.4736C24.8213 7.35771 22.5029 4.83179 19.643 4.83179Z" fill="black"/>
<path d="M19.7651 5.97156H11.6751C9.28707 5.97156 7.35118 8.08075 7.35118 10.6826V19.4967C7.35118 22.0985 9.28707 24.2077 11.6751 24.2077H19.7651C22.1531 24.2077 24.089 22.0985 24.089 19.4967V10.6826C24.089 8.08075 22.1531 5.97156 19.7651 5.97156Z" fill="#F4C23A"/>
<path d="M19.0677 7.62421H12.3725C10.4371 7.62421 8.86804 9.33367 8.86804 11.4424V18.7369C8.86804 20.8456 10.4371 22.555 12.3725 22.555H19.0677C21.0031 22.555 22.5721 20.8456 22.5721 18.7369V11.4424C22.5721 9.33367 21.0031 7.62421 19.0677 7.62421Z" fill="black"/>
<path d="M15.7201 19.8766C18.1852 19.8766 20.1835 17.7334 20.1835 15.0896C20.1835 12.4458 18.1852 10.3026 15.7201 10.3026C13.255 10.3026 11.2567 12.4458 11.2567 15.0896C11.2567 17.7334 13.255 19.8766 15.7201 19.8766Z" fill="#F4C23A"/>
<path d="M15.8247 18.148C17.4328 18.148 18.7364 16.7787 18.7364 15.0896C18.7364 13.4005 17.4328 12.0312 15.8247 12.0312C14.2166 12.0312 12.913 13.4005 12.913 15.0896C12.913 16.7787 14.2166 18.148 15.8247 18.148Z" fill="black"/>
<path d="M19.9045 11.1575C20.4919 11.1575 20.9681 10.6387 20.9681 9.99872C20.9681 9.35876 20.4919 8.83997 19.9045 8.83997C19.3172 8.83997 18.841 9.35876 18.841 9.99872C18.841 10.6387 19.3172 11.1575 19.9045 11.1575Z" fill="#F4C23A"/>
</g>
<defs>
<clipPath id="clip0_134_2">
<rect width="18.2024" height="20.5347" fill="white" transform="translate(6.6189 4.83179)"/>
</clipPath>
</defs>
</svg>