<svg width="32" height="31" viewBox="0 0 32 31" fill="none" xmlns="http://www.w3.org/2000/svg">
<rect x="0.162506" width="30.8889" height="30.198" rx="15.099" fill="#F4C23A"/>
<path d="M8.96766 22.3179C8.96766 22.3179 9.10204 24.8119 9.50517 25.087C9.50517 25.087 9.57236 26.0956 12.3607 24.2801C12.3607 24.2801 17.2319 25.4721 20.3058 23.5465C20.3058 23.5465 26.6551 20.6858 25.3617 11.8284C25.3449 11.8284 23.8164 3.3378 14.8635 3.63121C14.8635 3.63121 7.75827 4.23637 6.21293 10.9848C6.21293 10.9848 3.87812 16.4496 8.96766 22.3179Z" fill="black"/>
<path d="M17.3583 14.093L15.6155 12.8962L14.3972 12.0637C14.3972 12.0637 13.2297 11.6301 12.6206 12.5667L9.54106 17.5618C9.54106 17.5618 9.47338 18.325 10.2179 18.0648L13.2128 15.7233C13.2128 15.7233 13.7542 15.1336 14.3126 15.6887L16.9522 17.7006C16.9522 17.7006 17.9505 17.8914 18.4412 17.3017L21.673 12.1157C21.673 12.1157 21.7407 11.1965 20.9285 11.5607C20.9285 11.5607 17.8321 14.0063 17.3752 14.0756L17.3583 14.093Z" fill="#F4C23A"/>
</svg>
